<?xml version="1.0" encoding="UTF-8"?>
<svg version="1.1" xmlns="http://www.w3.org/2000/svg" width="181" height="142">
<path d="M0 0 C0.99 0 1.98 0 3 0 C2 7 2 7 -4 25 C10.52 25 25.04 25 40 25 C38.87528345 31.74829932 38.87528345 31.74829932 37.06640625 35.07421875 C36.66945557 35.81559082 36.27250488 36.55696289 35.86352539 37.32080078 C35.43418701 38.10181152 35.00484863 38.88282227 34.5625 39.6875 C33.65563616 41.36555383 32.74940573 43.04395009 31.84375 44.72265625 C31.14185547 46.01647217 31.14185547 46.01647217 30.42578125 47.33642578 C28.98965315 50.01932947 27.59817524 52.72114745 26.21875 55.43359375 C25.55057251 56.73840698 25.55057251 56.73840698 24.86889648 58.06958008 C24.01005034 59.7495544 23.1577912 61.43291546 22.31274414 63.11987305 C21.92207764 63.87695557 21.53141113 64.63403809 21.12890625 65.4140625 C20.61952515 66.41880615 20.61952515 66.41880615 20.09985352 67.44384766 C19 69 19 69 16 70 C16.40992188 70.79921875 16.81984375 71.5984375 17.2421875 72.421875 C25.94276061 90.15605752 25.94276061 90.15605752 22.9375 99.5 C20.67784382 104.26599972 17.35115985 106.29843623 12.75 108.6875 C4.38931131 111.61374104 -4.01602931 110.96843023 -12.73046875 110.61328125 C-51.38180206 109.33516841 -51.38180206 109.33516841 -84.31640625 127.66015625 C-85.18724854 128.49168213 -86.05809082 129.32320801 -86.95532227 130.17993164 C-89 132 -89 132 -91 132 C-90.15140515 127.46220591 -87.48771835 125.14989571 -84.25 122.0625 C-83.7240625 121.55009766 -83.198125 121.03769531 -82.65625 120.50976562 C-81.60462708 119.48547449 -80.55066855 118.46357581 -79.49438477 117.4440918 C-74.85530169 112.96113535 -70.45010288 108.28831394 -66.0625 103.5625 C-60.44472601 97.53312672 -54.72483461 91.6308257 -48.83227539 85.86938477 C-45.99646136 83.07819543 -43.30244474 80.23146721 -40.7109375 77.2109375 C-36.43511296 72.26160538 -31.78288692 67.71166541 -27.125 63.125 C-25.41699476 61.4424115 -23.71114749 59.75762867 -22.0078125 58.0703125 C-21.26160645 57.33570801 -20.51540039 56.60110352 -19.74658203 55.84423828 C-17.93306123 54.10805576 -17.93306123 54.10805576 -17 52 C-16.34 52 -15.68 52 -15 52 C-15 51.34 -15 50.68 -15 50 C-21.93 49.67 -28.86 49.34 -36 49 C-34.92652276 43.63261381 -33.09124416 41.36705757 -29.5625 37.5 C-28.45829901 36.25233012 -27.35678199 35.00228032 -26.2578125 33.75 C-25.70641602 33.12222656 -25.15501953 32.49445312 -24.58691406 31.84765625 C-22.26454417 29.14370311 -20.08916115 26.34059515 -17.9375 23.5 C-16.74447266 21.92605469 -16.74447266 21.92605469 -15.52734375 20.3203125 C-15.12241699 19.78567383 -14.71749023 19.25103516 -14.30029297 18.70019531 C-11.43840521 14.95814004 -8.50337654 11.27248057 -5.57788086 7.58007812 C-3.62028188 5.10095664 -1.7534658 2.63019871 0 0 Z M11 62 C12.11854586 65.72614153 12.11854586 65.72614153 15 68 C13.88145414 64.27385847 13.88145414 64.27385847 11 62 Z M12 82 C10.82823482 84.12232979 9.66245215 86.24757791 8.5 88.375 C8.16613281 88.97828125 7.83226562 89.5815625 7.48828125 90.203125 C5.61226062 93.41414777 5.61226062 93.41414777 5 97 C9.30926238 96.62887548 9.30926238 96.62887548 12.875 94.375 C14.4273837 91.09774552 14.32561034 88.58171371 14 85 C13.34 84.01 12.68 83.02 12 82 Z " fill="#EC9021" transform="translate(136,3)"/>
<path d="M0 0 C0.99 0 1.98 0 3 0 C2.39301257 4.12751449 0.96189209 7.3321148 -1 11 C-0.5875 10.525625 -0.175 10.05125 0.25 9.5625 C2.182185 7.83733482 3.48192275 7.43415125 6 7 C5.38650224 11.54064085 3.54408461 15.21517973 1.4296875 19.21484375 C1.0703714 19.90703506 0.7110553 20.59922638 0.34085083 21.31239319 C-0.80857605 23.52387187 -1.96644741 25.73079068 -3.125 27.9375 C-4.25633579 30.10532761 -5.38587657 32.27408245 -6.51507568 34.44302368 C-7.25741567 35.86882478 -8.0004525 37.2942633 -8.74420166 38.71932983 C-12.2455092 45.43931205 -15.6309628 52.21277519 -19 59 C-12.73 59 -6.46 59 0 59 C-1.95751664 62.91503329 -4.22759684 65.62334173 -7.1875 68.75 C-8.18687124 69.82228953 -9.18556952 70.89520665 -10.18359375 71.96875 C-10.66812012 72.48824219 -11.15264648 73.00773437 -11.65185547 73.54296875 C-13.38518655 75.41629723 -15.07373374 77.32553941 -16.75 79.25 C-17.29140625 79.87132813 -17.8328125 80.49265625 -18.390625 81.1328125 C-19.51222642 82.43408794 -20.62625403 83.74191356 -21.734375 85.0546875 C-24.43222575 88.21809656 -27.03733098 91.11798801 -30.3125 93.6875 C-34.46311095 97.064588 -37.47172409 101.31188146 -40.62426758 105.59448242 C-43.81429434 109.90714717 -43.81429434 109.90714717 -46 111 C-47.35845193 111.08902493 -48.72115974 111.11760132 -50.08251953 111.11352539 C-51.34360031 111.11341209 -51.34360031 111.11341209 -52.63015747 111.11329651 C-53.99272171 111.10555458 -53.99272171 111.10555458 -55.3828125 111.09765625 C-56.31221649 111.0962413 -57.24162048 111.09482635 -58.19918823 111.09336853 C-61.17449124 111.08776053 -64.14971964 111.07520668 -67.125 111.0625 C-69.13932183 111.05748603 -71.15364484 111.05292295 -73.16796875 111.04882812 C-78.11200802 111.0377885 -83.05599135 111.02051849 -88 111 C-88.33 110.34 -88.66 109.68 -89 109 C-88.03950392 106.73687034 -87.01193716 104.61194635 -85.875 102.4375 C-85.52824219 101.75945312 -85.18148437 101.08140625 -84.82421875 100.3828125 C-83.55888213 97.91691758 -82.27972215 95.45846003 -81 93 C-79.85664437 90.79303426 -78.71342318 88.58599887 -77.5703125 86.37890625 C-74.39032309 80.24731244 -71.19861676 74.12189471 -68 68 C-65.11444223 68.58074119 -64.06200356 68.94331103 -61.8125 71 C-59.70699626 74.48497171 -59.411024 77.01259197 -59.17578125 81.01171875 C-59.11595583 83.0736785 -59.11595583 83.0736785 -58 85 C-56.02111039 85.72693904 -54.02045442 86.39816251 -52 87 C-52.33 85.68 -52.66 84.36 -53 83 C-52.360625 82.7525 -51.72125 82.505 -51.0625 82.25 C-48.81258459 81.18437567 -48.81258459 81.18437567 -48.25 78.875 C-48.1675 78.25625 -48.085 77.6375 -48 77 C-49.051875 76.525625 -50.10375 76.05125 -51.1875 75.5625 C-51.77917969 75.29566406 -52.37085938 75.02882813 -52.98046875 74.75390625 C-55.02373689 73.87143835 -55.02373689 73.87143835 -57.44921875 73.90234375 C-61.64004869 72.41982964 -62.7425946 68.83621239 -64.625 65 C-65.0065625 64.26910156 -65.388125 63.53820312 -65.78125 62.78515625 C-69.72552303 55.04622055 -73.44069626 46.85461632 -72 38 C-70.14863443 32.69693591 -66.94661527 29.56843485 -62 27 C-56.87718229 25.2519295 -52.63350073 24.92601804 -47.21875 25.11328125 C-30.74304896 26.04003589 -30.74304896 26.04003589 -16.47851562 18.91088867 C-13.41975885 15.76343399 -10.66344548 12.48496276 -8 9 C-6.91711841 7.66041177 -5.82378051 6.32918934 -4.71875 5.0078125 C-4.24373047 4.42918457 -3.76871094 3.85055664 -3.27929688 3.25439453 C-2 2 -2 2 0 2 C0 1.34 0 0.68 0 0 Z M-54 38 C-58.70842624 40.11326526 -58.70842624 40.11326526 -62 44 C-62.31905781 48.38704487 -62.11675545 51.17808044 -60 55 C-58.80015203 52.73495035 -57.61505231 50.46410112 -56.4375 48.1875 C-56.09525391 47.54490234 -55.75300781 46.90230469 -55.40039062 46.24023438 C-54.5234977 44.53073605 -53.75484383 42.76678706 -53 41 C-53.33 40.01 -53.66 39.02 -54 38 Z M-46 84 C-45.67 84.66 -45.34 85.32 -45 86 C-44.34 85.67 -43.68 85.34 -43 85 C-43.99 84.67 -44.98 84.34 -46 84 Z M-50 89 C-49.34 89.66 -48.68 90.32 -48 91 C-48 90.34 -48 89.68 -48 89 C-48.66 89 -49.32 89 -50 89 Z " fill="#EF9A2E" transform="translate(100,3)"/>
<path d="M0 0 C2.99245399 0.58820988 3.93038864 0.93247944 6.2109375 3.14453125 C8.34204376 6.54592575 8.52506657 8.70379021 8.625 12.6875 C8.4975998 17.38440483 8.4975998 17.38440483 11 21 C16.59235416 24.01987125 19.78024127 24.20030432 26 23 C27.125 27.75 27.125 27.75 26 30 C25.34 30 24.68 30 24 30 C24.66 31.32 25.32 32.64 26 34 C25.01 34.33 24.02 34.66 23 35 C22.34 36.65 21.68 38.3 21 40 C14.73 40 8.46 40 2 40 C2 40.66 2 41.32 2 42 C-8.89 42.495 -8.89 42.495 -20 43 C-20.33 42.34 -20.66 41.68 -21 41 C-20.03950392 38.73687034 -19.01193716 36.61194635 -17.875 34.4375 C-17.52824219 33.75945312 -17.18148438 33.08140625 -16.82421875 32.3828125 C-15.55888213 29.91691758 -14.27972215 27.45846003 -13 25 C-11.85664437 22.79303426 -10.71342318 20.58599887 -9.5703125 18.37890625 C-6.39032309 12.24731244 -3.19861676 6.12189471 0 0 Z " fill="#F6B859" transform="translate(32,71)"/>
<path d="M0 0 C-1.3875818 3.13879381 -2.99523408 5.22254795 -5.44921875 7.609375 C-6.13306641 8.28226563 -6.81691406 8.95515625 -7.52148438 9.6484375 C-8.59366211 10.68871094 -8.59366211 10.68871094 -9.6875 11.75 C-14.4294954 16.37333564 -18.97726798 21.04931324 -23.29614258 26.07128906 C-26.05391939 29.19300232 -29.02518362 32.08704727 -32 35 C-40.54667766 42.89004979 -40.54667766 42.89004979 -47.13183594 52.29150391 C-49.61533838 55.89212807 -52.57419499 57.74974331 -56.22265625 60.08203125 C-56.9239415 60.54107346 -57.62522675 61.00011566 -58.34776306 61.47306824 C-59.82468993 62.43685146 -61.30496007 63.39552851 -62.78833008 64.34936523 C-65.06529536 65.81429845 -67.33110959 67.29532696 -69.59570312 68.77929688 C-71.03323159 69.71449934 -72.47136219 70.64877704 -73.91015625 71.58203125 C-74.59038345 72.02569534 -75.27061066 72.46935944 -75.97145081 72.9264679 C-80.76711942 76 -80.76711942 76 -83 76 C-82.15140515 71.46220591 -79.48771835 69.14989571 -76.25 66.0625 C-75.7240625 65.55009766 -75.198125 65.03769531 -74.65625 64.50976562 C-73.60462708 63.48547449 -72.55066855 62.46357581 -71.49438477 61.4440918 C-66.85530169 56.96113535 -62.45010288 52.28831394 -58.0625 47.5625 C-52.44472601 41.53312672 -46.72483461 35.6308257 -40.83227539 29.86938477 C-37.34072834 26.43278111 -34.08370493 22.8559766 -30.875 19.15478516 C-27.41020984 15.17298334 -23.87014813 11.27846472 -20.25 7.4375 C-19.14785156 6.19129883 -19.14785156 6.19129883 -18.0234375 4.91992188 C-12.17303166 -1.19871191 -8.19867523 -2.03043212 0 0 Z " fill="#9D4304" transform="translate(128,59)"/>
<path d="M0 0 C-0.61349776 4.54064085 -2.45591539 8.21517973 -4.5703125 12.21484375 C-4.9296286 12.90703506 -5.2889447 13.59922638 -5.65914917 14.31239319 C-6.80857605 16.52387187 -7.96644741 18.73079068 -9.125 20.9375 C-10.25633579 23.10532761 -11.38587657 25.27408245 -12.51507568 27.44302368 C-13.25741567 28.86882478 -14.0004525 30.2942633 -14.74420166 31.71932983 C-18.2455092 38.43931205 -21.6309628 45.21277519 -25 52 C-18.73 52 -12.46 52 -6 52 C-7.95751664 55.91503329 -10.22759684 58.62334173 -13.1875 61.75 C-14.18687124 62.82228953 -15.18556952 63.89520665 -16.18359375 64.96875 C-16.66812012 65.48824219 -17.15264648 66.00773437 -17.65185547 66.54296875 C-19.38518655 68.41629723 -21.07373374 70.32553941 -22.75 72.25 C-23.29140625 72.87132813 -23.8328125 73.49265625 -24.390625 74.1328125 C-25.51222642 75.43408794 -26.62625403 76.74191356 -27.734375 78.0546875 C-30.49170234 81.28783682 -33.19432139 84.25901488 -36.5 86.9375 C-40.12238816 89.89755534 -42.76588783 93.38268887 -45.51953125 97.14453125 C-47 99 -47 99 -49 100 C-47.65662765 96.14036166 -45.95394127 93.47830429 -43.3125 90.375 C-39.56121969 85.83793238 -36.45511335 81.10835311 -33.4453125 76.0546875 C-32.96835938 75.37664062 -32.49140625 74.69859375 -32 74 C-31.34 74 -30.68 74 -30 74 C-29.75507812 73.29488281 -29.51015625 72.58976562 -29.2578125 71.86328125 C-26.99583663 66.71412499 -23.35358442 62.48947592 -20 58 C-25.28 58 -30.56 58 -36 58 C-35.67 55.69 -35.34 53.38 -35 51 C-33.515 50.505 -33.515 50.505 -32 50 C-31.26684199 48.02340601 -30.61307763 46.0170722 -30 44 C-28.91220339 41.69044168 -27.78489483 39.39920428 -26.625 37.125 C-26.03976563 35.97257812 -25.45453125 34.82015625 -24.8515625 33.6328125 C-24.54959961 33.04161621 -24.24763672 32.45041992 -23.93652344 31.84130859 C-22.96695806 29.9350359 -22.00942743 28.02311287 -21.0546875 26.109375 C-20.36992406 24.73951715 -19.68502393 23.36972761 -19 22 C-18.6385791 21.27603027 -18.2771582 20.55206055 -17.90478516 19.80615234 C-16.78235033 17.57250216 -15.64283839 15.34826921 -14.5 13.125 C-14.12230469 12.36703125 -13.74460938 11.6090625 -13.35546875 10.828125 C-12.98035156 10.10367187 -12.60523438 9.37921875 -12.21875 8.6328125 C-11.7227832 7.65658936 -11.7227832 7.65658936 -11.21679688 6.66064453 C-9.72465347 4.62421607 -8.27610866 4.02894882 -6 3 C-5.34 2.34 -4.68 1.68 -4 1 C-2 0 -2 0 0 0 Z " fill="#D0D1D2" transform="translate(106,10)"/>
<path d="M0 0 C0.99 0 1.98 0 3 0 C2.39627012 5.89431019 0.78792832 11.07489734 -1.25 16.625 C-1.53746094 17.45773438 -1.82492188 18.29046875 -2.12109375 19.1484375 C-3.97913412 24.24384953 -5.86503439 27.34498576 -10 31 C-11.97520169 33.11648253 -13.86154682 35.3061366 -15.75 37.5 C-16.24371094 38.05558594 -16.73742187 38.61117187 -17.24609375 39.18359375 C-20.24662938 42.67736812 -21.06084465 44.30422323 -22 49 C-26.62 49 -31.24 49 -36 49 C-34.92652276 43.63261381 -33.09124416 41.36705757 -29.5625 37.5 C-28.45829901 36.25233012 -27.35678199 35.00228032 -26.2578125 33.75 C-25.70641602 33.12222656 -25.15501953 32.49445312 -24.58691406 31.84765625 C-22.26454417 29.14370311 -20.08916115 26.34059515 -17.9375 23.5 C-17.14214844 22.45070313 -16.34679687 21.40140625 -15.52734375 20.3203125 C-15.12241699 19.78567383 -14.71749023 19.25103516 -14.30029297 18.70019531 C-11.43840521 14.95814004 -8.50337654 11.27248057 -5.57788086 7.58007812 C-3.62028188 5.10095664 -1.7534658 2.63019871 0 0 Z " fill="#9E4202" transform="translate(136,3)"/>
<path d="M0 0 C0.33 0.66 0.66 1.32 1 2 C3.02463255 2.65213292 3.02463255 2.65213292 5 3 C4.01 3.495 4.01 3.495 3 4 C2.67 4.99 2.34 5.98 2 7 C1.34 7 0.68 7 0 7 C-0.66 6.01 -1.32 5.02 -2 4 C-2.66 5.32 -3.32 6.64 -4 8 C-4.99 8 -5.98 8 -7 8 C-7 8.66 -7 9.32 -7 10 C-7.99 10 -8.98 10 -10 10 C-10 10.66 -10 11.32 -10 12 C-8.88625 11.95875 -7.7725 11.9175 -6.625 11.875 C-3 12 -3 12 -1 14 C-1.804375 14.45375 -2.60875 14.9075 -3.4375 15.375 C-6.08856572 16.74725665 -6.08856572 16.74725665 -7 19 C-7.16669318 22.54171978 -7.16669318 22.54171978 -7 26 C-6.67 26.33 -6.34 26.66 -6 27 C-4.9615789 25.28133783 -3.94485365 23.54955402 -2.9375 21.8125 C-2.08478516 20.36810547 -2.08478516 20.36810547 -1.21484375 18.89453125 C0.13815174 15.67083459 0.04769518 14.27479579 -1 11 C0.32 11.33 1.64 11.66 3 12 C2.39220107 22.79367067 2.39220107 22.79367067 -1 27 C-1.66 27.33 -2.32 27.66 -3 28 C-3.70151152 29.3153341 -4.36525925 30.65117592 -5 32 C-5.66 32.99 -6.32 33.98 -7 35 C-6.64484971 37.84120234 -5.90650749 40.28047752 -5 43 C-3.02 42.505 -3.02 42.505 -1 42 C-1.33 43.32 -1.66 44.64 -2 46 C-1.34 46 -0.68 46 0 46 C0 45.34 0 44.68 0 44 C2.97 44.66 5.94 45.32 9 46 C8 50 8 50 6 52 C4.33984375 51.25130208 2.6796875 50.50260417 1.01953125 49.75390625 C-1.02373689 48.87143835 -1.02373689 48.87143835 -3.44921875 48.90234375 C-7.64004869 47.41982964 -8.7425946 43.83621239 -10.625 40 C-11.0065625 39.26910156 -11.388125 38.53820312 -11.78125 37.78515625 C-15.72552303 30.04622055 -19.44069626 21.85461632 -18 13 C-16.14863443 7.69693591 -12.94661527 4.56843485 -8 2 C-5.33910952 1.159466 -2.74006179 0.56690934 0 0 Z " fill="#F4B858" transform="translate(46,28)"/>
<path d="M0 0 C0.99 0 1.98 0 3 0 C17.83476535 24.98865815 17.83476535 24.98865815 15.48828125 35.234375 C14.25586178 38.80773939 13.08488213 41.67426112 10 44 C7.30078125 44.51171875 7.30078125 44.51171875 4.3125 44.6875 C3.31863281 44.75324219 2.32476562 44.81898437 1.30078125 44.88671875 C0.16189453 44.94279297 0.16189453 44.94279297 -1 45 C-1.66 44.01 -2.32 43.02 -3 42 C-1.515 41.505 -1.515 41.505 0 41 C0 40.01 0 39.02 0 38 C-3.465 38.495 -3.465 38.495 -7 39 C-6.67 36.36 -6.34 33.72 -6 31 C-5.34 31 -4.68 31 -4 31 C-0.94404265 25.11494677 1.74141615 19.61738138 0 13 C0.33333333 10.66666667 0.66666667 8.33333333 1 6 C0.63141012 3.23135047 0.63141012 3.23135047 0 1 C0 0.67 0 0.34 0 0 Z M4 20 C2.82823482 22.12232979 1.66245215 24.24757791 0.5 26.375 C0.16613281 26.97828125 -0.16773438 27.5815625 -0.51171875 28.203125 C-2.38773938 31.41414777 -2.38773938 31.41414777 -3 35 C1.30926238 34.62887548 1.30926238 34.62887548 4.875 32.375 C6.4273837 29.09774552 6.32561034 26.58171371 6 23 C5.34 22.01 4.68 21.02 4 20 Z " fill="#EA840D" transform="translate(144,65)"/>
<path d="M0 0 C14.85 0.33 29.7 0.66 45 1 C43.87528345 7.74829932 43.87528345 7.74829932 42.06640625 11.07421875 C41.47061768 12.18639771 41.47061768 12.18639771 40.86279297 13.32104492 C40.43369629 14.1019751 40.00459961 14.88290527 39.5625 15.6875 C38.65989888 17.36444483 37.75756348 19.0415327 36.85546875 20.71875 C36.38802246 21.58113281 35.92057617 22.44351563 35.43896484 23.33203125 C33.04814999 27.76481455 30.71421968 32.2273426 28.375 36.6875 C27.5289091 38.29571145 26.68257957 39.90379739 25.8359375 41.51171875 C25.23007813 42.66285156 24.62421875 43.81398437 24 45 C20.19970703 44.23095703 20.19970703 44.23095703 18.40234375 42.15234375 C17.91894531 41.42144531 17.43554688 40.69054687 16.9375 39.9375 C15.54585514 37.73937952 15.54585514 37.73937952 14 36 C13.01 36 12.02 36 11 36 C11 35.01 11 34.02 11 33 C10.01 33 9.02 33 8 33 C8.33 31.68 8.66 30.36 9 29 C12.46941546 29.45822468 15.67395049 29.89131683 19 31 C19 31.99 19 32.98 19 34 C19.99 34 20.98 34 22 34 C22.33 33.01 22.66 32.02 23 31 C24.9375 29.875 24.9375 29.875 27 29 C29.16666667 28.16666667 29.16666667 28.16666667 30 26 C30.66 26.33 31.32 26.66 32 27 C32.33 25.02 32.66 23.04 33 21 C33.66 21 34.32 21 35 21 C35.33 19.02 35.66 17.04 36 15 C36.66 15 37.32 15 38 15 C37.938125 13.741875 37.87625 12.48375 37.8125 11.1875 C37.79173989 7.27768014 37.79173989 7.27768014 39.5 5 C39.995 4.67 40.49 4.34 41 4 C36.16574188 2.67797839 31.56567242 3.06907601 26.625 3.375 C25.8 3.41882813 24.975 3.46265625 24.125 3.5078125 C20.46231074 3.71710903 16.92744859 4.01172161 13.30078125 4.59765625 C9.78235834 5.0265291 7.03296847 4.72539847 3.5625 4.0625 C1.98662109 3.77052734 1.98662109 3.77052734 0.37890625 3.47265625 C-0.40613281 3.31667969 -1.19117188 3.16070313 -2 3 C-1.34 2.67 -0.68 2.34 0 2 C0 1.34 0 0.68 0 0 Z " fill="#C57923" transform="translate(131,27)"/>
<path d="M0 0 C0.495 1.98 0.495 1.98 1 4 C2.98 4 4.96 4 7 4 C7 4.66 7 5.32 7 6 C7.66 6 8.32 6 9 6 C9 6.99 9 7.98 9 9 C8.34 9 7.68 9 7 9 C7.495 10.98 7.495 10.98 8 13 C10.31 13 12.62 13 15 13 C13.25009673 18.12144464 10.24682915 21.5258732 6.77734375 25.59765625 C5.05731142 27.92253512 4.66115019 29.27933771 4 32 C0.35695136 34.42869909 -2.30722339 34.25675675 -6.51171875 34.1953125 C-7.23994339 34.1924826 -7.96816803 34.18965271 -8.71846008 34.18673706 C-11.04164137 34.17555257 -13.36443547 34.15045166 -15.6875 34.125 C-17.2636663 34.11496794 -18.83983865 34.10584248 -20.41601562 34.09765625 C-24.27749267 34.07561896 -28.13868071 34.04110141 -32 34 C-32 33.67 -32 33.34 -32 33 C-27.71 33 -23.42 33 -19 33 C-19 32.34 -19 31.68 -19 31 C-12.73 30.67 -6.46 30.34 0 30 C0.66 28.35 1.32 26.7 2 25 C2.66 24.67 3.32 24.34 4 24 C3.505 22.515 3.505 22.515 3 21 C3.66 21 4.32 21 5 21 C5 19.02 5 17.04 5 15 C3.2984375 15.3403125 3.2984375 15.3403125 1.5625 15.6875 C-3.45448598 16.35164483 -7.39720608 14.88586695 -12 13 C-12.33 10.69 -12.66 8.38 -13 6 C-12.34 6.66 -11.68 7.32 -11 8 C-9.01643517 8.71408334 -7.01684563 9.38617742 -5 10 C-5.33 8.68 -5.66 7.36 -6 6 C-5.38125 5.7525 -4.7625 5.505 -4.125 5.25 C-1.64931313 3.79371361 -1.04874998 2.62187494 0 0 Z M1 7 C1.33 7.66 1.66 8.32 2 9 C2.66 8.67 3.32 8.34 4 8 C3.01 7.67 2.02 7.34 1 7 Z M-3 12 C-2.34 12.66 -1.68 13.32 -1 14 C-1 13.34 -1 12.68 -1 12 C-1.66 12 -2.32 12 -3 12 Z " fill="#EE9D36" transform="translate(53,80)"/>
<path d="M0 0 C0.98120464 3.05263664 0.98120464 4.94736336 0 8 C0.99 7.34 1.98 6.68 3 6 C3.33 7.98 3.66 9.96 4 12 C5.3921875 11.87625 5.3921875 11.87625 6.8125 11.75 C10 12 10 12 11.875 14 C12.431875 14.99 12.431875 14.99 13 16 C12.01 17.98 11.02 19.96 10 22 C9.34 22 8.68 22 8 22 C8 22.66 8 23.32 8 24 C8.66 24 9.32 24 10 24 C8.44200307 27.76878586 6.090634 30.11271145 3.1875 32.9375 C2.33542969 33.77152344 1.48335937 34.60554688 0.60546875 35.46484375 C-1.08268364 37.10743881 -2.77144731 38.74940596 -4.4609375 40.390625 C-7.40143194 43.41254852 -10.11134231 46.57760221 -12.8125 49.8125 C-13.31458984 50.40998047 -13.81667969 51.00746094 -14.33398438 51.62304688 C-15.55806732 53.08028848 -16.77932962 54.53989865 -18 56 C-18 52.46763807 -17.32444095 51.71858763 -15.26171875 48.9453125 C-14.40223633 47.77548828 -14.40223633 47.77548828 -13.52539062 46.58203125 C-12.61563477 45.36580078 -12.61563477 45.36580078 -11.6875 44.125 C-10.50209987 42.52477404 -9.31845379 40.92324696 -8.13671875 39.3203125 C-7.58290527 38.57168945 -7.0290918 37.82306641 -6.45849609 37.05175781 C-4.86824038 34.87931399 -4.86824038 34.87931399 -3.20703125 31.9296875 C-2.60955078 30.97449219 -2.60955078 30.97449219 -2 30 C-1.34 30 -0.68 30 0 30 C0.24492188 29.29488281 0.48984375 28.58976562 0.7421875 27.86328125 C3.00416337 22.71412499 6.64641558 18.48947592 10 14 C4.72 14 -0.56 14 -6 14 C-5.67 11.69 -5.34 9.38 -5 7 C-4.01 6.67 -3.02 6.34 -2 6 C-0.77479736 2.99152582 -0.77479736 2.99152582 0 0 Z " fill="#D8D2CA" transform="translate(76,54)"/>
<path d="M0 0 C0.99 0 1.98 0 3 0 C15.875 21.6875 15.875 21.6875 15 30 C14.34 29.67 13.68 29.34 13 29 C13 26.69 13 24.38 13 22 C12.34 22 11.68 22 11 22 C10.5875 20.88625 10.175 19.7725 9.75 18.625 C8.64453484 16.00679305 8.25119213 15.16506911 5.8125 13.5625 C5.214375 13.376875 4.61625 13.19125 4 13 C3.67 14.65 3.34 16.3 3 18 C2.01 17.67 1.02 17.34 0 17 C0 11.33333333 0 5.66666667 0 0 Z M1 18 C2.1796875 19.578125 2.1796875 19.578125 3 22 C1.8828125 25.234375 1.8828125 25.234375 0.125 28.75 C-0.73738281 30.50570312 -0.73738281 30.50570312 -1.6171875 32.296875 C-2.07351562 33.18890625 -2.52984375 34.0809375 -3 35 C1.81122847 33.47444034 1.81122847 33.47444034 5 30 C5.1421988 26.16063232 5.17754676 22.67983361 4 19 C4.99 19 5.98 19 7 19 C8.14941326 21.29882653 8.1657644 22.69389329 8.1875 25.25 C8.20167969 25.99765625 8.21585938 26.7453125 8.23046875 27.515625 C7.93159115 30.73742422 7.44959373 33.08466107 6 36 C2.9609375 37.2421875 2.9609375 37.2421875 -0.625 37.875 C-1.81351563 38.09929687 -3.00203125 38.32359375 -4.2265625 38.5546875 C-5.59941406 38.77511719 -5.59941406 38.77511719 -7 39 C-6.67 36.36 -6.34 33.72 -6 31 C-5.34 31 -4.68 31 -4 31 C-2.49439503 28.14589666 -1.36783204 25.31875358 -0.375 22.25 C0.01558594 21.05117187 0.01558594 21.05117187 0.4140625 19.828125 C0.60742188 19.22484375 0.80078125 18.6215625 1 18 Z " fill="#E68411" transform="translate(144,65)"/>
<path d="M0 0 C0 3 0 3 -2.25 5.3125 C-3.1575 6.199375 -4.065 7.08625 -5 8 C-5.721875 9.093125 -6.44375 10.18625 -7.1875 11.3125 C-7.785625 12.199375 -8.38375 13.08625 -9 14 C-9.66 14 -10.32 14 -11 14 C-11 14.66 -11 15.32 -11 16 C-8.69 16.66 -6.38 17.32 -4 18 C-8.74414985 23.39345954 -14.68631434 26.94852032 -20.6875 30.8125 C-21.74517578 31.50537109 -22.80285156 32.19824219 -23.89257812 32.91210938 C-31.73745382 38 -31.73745382 38 -34 38 C-33.15140515 33.46220591 -30.48771835 31.14989571 -27.25 28.0625 C-26.46109375 27.29389648 -26.46109375 27.29389648 -25.65625 26.50976562 C-24.60355543 25.48443069 -23.54853431 24.46147902 -22.49121094 23.44091797 C-17.57969442 18.69504854 -12.90902185 13.74116792 -8.25 8.75 C-6.90116399 7.3071773 -5.55221197 5.86446305 -4.203125 4.421875 C-3.61176758 3.78862305 -3.02041016 3.15537109 -2.41113281 2.50292969 C-1.61817728 1.65839088 -0.8191533 0.8191533 0 0 Z " fill="#90430C" transform="translate(79,97)"/>
<path d="M0 0 C-0.57229633 5.19228855 -3.0982161 9.3103703 -5.5625 13.8125 C-5.98724609 14.60076172 -6.41199219 15.38902344 -6.84960938 16.20117188 C-7.89396554 18.1373378 -8.9442077 20.07005367 -10 22 C-11.98 22 -13.96 22 -16 22 C-16.12375 22.5775 -16.2475 23.155 -16.375 23.75 C-17.00648824 26.02335767 -17.88858191 27.9253529 -19 30 C-19.66 30 -20.32 30 -21 30 C-21.11472656 30.56332031 -21.22945313 31.12664063 -21.34765625 31.70703125 C-22.07854003 34.27606586 -23.13863614 36.35571177 -24.4375 38.6875 C-24.86933594 39.47511719 -25.30117187 40.26273438 -25.74609375 41.07421875 C-27 43 -27 43 -29 44 C-27.50357483 39.0119161 -25.37222831 34.60491377 -23 30 C-22.38155781 28.76625314 -21.76452569 27.53179904 -21.1484375 26.296875 C-20.4324247 24.86451683 -19.71627334 23.43222791 -19 22 C-18.63664551 21.27216309 -18.27329102 20.54432617 -17.89892578 19.79443359 C-16.77842968 17.56470021 -15.64084055 15.34438265 -14.5 13.125 C-14.12230469 12.36703125 -13.74460937 11.6090625 -13.35546875 10.828125 C-12.98035156 10.10367187 -12.60523437 9.37921875 -12.21875 8.6328125 C-11.88810547 7.98199707 -11.55746094 7.33118164 -11.21679688 6.66064453 C-9.72465347 4.62421607 -8.27610866 4.02894882 -6 3 C-5.34 2.34 -4.68 1.68 -4 1 C-2 0 -2 0 0 0 Z " fill="#D3CFCB" transform="translate(106,10)"/>
<path d="M0 0 C0.99 0 1.98 0 3 0 C2.42242224 4.22786917 0.97152 7.10251786 -1.3125 10.6875 C-2.20388672 12.11642578 -2.20388672 12.11642578 -3.11328125 13.57421875 C-4.98267717 15.97772779 -6.1916962 16.93991181 -9 18 C-9 18.66 -9 19.32 -9 20 C-9.66 20 -10.32 20 -11 20 C-11 20.99 -11 21.98 -11 23 C-12.65 23.66 -14.3 24.32 -16 25 C-16.33 24.34 -16.66 23.68 -17 23 C-17.53625 23.61875 -18.0725 24.2375 -18.625 24.875 C-21.41733507 27.37340507 -23.32985942 28.26597188 -27 29 C-30.375 28.125 -30.375 28.125 -33 27 C-33 26.34 -33 25.68 -33 25 C-31.68386719 24.98195313 -30.36773437 24.96390625 -29.01171875 24.9453125 C-22.97510178 24.26709403 -19.92852053 21.08338002 -15.8125 16.875 C-15.14025391 16.22273438 -14.46800781 15.57046875 -13.77539062 14.8984375 C-10.55068399 11.73338951 -7.52444418 8.48288675 -4.63671875 5.0078125 C-3.76660156 4.01523438 -2.89648438 3.02265625 -2 2 C-1.34 2 -0.68 2 0 2 C0 1.34 0 0.68 0 0 Z " fill="#E8800A" transform="translate(100,3)"/>
<path d="M0 0 C0.99 0 1.98 0 3 0 C2.42381249 5.14595054 1.25256722 9.55078055 -0.5625 14.4375 C-1.01753906 15.67371094 -1.47257812 16.90992188 -1.94140625 18.18359375 C-2.29074219 19.11300781 -2.64007813 20.04242187 -3 21 C-3.33 19.68 -3.66 18.36 -4 17 C-11.51112606 20.11436934 -16.07032692 25.75574743 -21 32 C-23.85908765 35.07351923 -26.20966967 37.24135097 -30 39 C-23.99146406 30.88035683 -17.71554025 22.97431175 -11.45800781 15.04638672 C-9.95030569 13.13577242 -8.44388588 11.22415212 -6.9375 9.3125 C-6.47255127 8.72452637 -6.00760254 8.13655273 -5.52856445 7.53076172 C-3.5882696 5.06798271 -1.74037471 2.61056206 0 0 Z " fill="#934105" transform="translate(136,3)"/>
<path d="M0 0 C7.625 0.875 7.625 0.875 11 2 C11 2.99 11 3.98 11 5 C11.99 5 12.98 5 14 5 C14.33 4.01 14.66 3.02 15 2 C17.60242414 0.35179805 18.86248779 0 22 0 C20.94513949 6.12096691 19.34782974 10.75506674 16 16 C13.28527551 15.63060984 12.2248906 15.26008131 10.40234375 13.15234375 C9.67724609 12.05599609 9.67724609 12.05599609 8.9375 10.9375 C7.54585514 8.73937952 7.54585514 8.73937952 6 7 C5.01 7 4.02 7 3 7 C3 6.01 3 5.02 3 4 C2.01 4 1.02 4 0 4 C0 2.68 0 1.36 0 0 Z " fill="#E2810F" transform="translate(139,56)"/>
<path d="M0 0 C0.33 0 0.66 0 1 0 C1.103125 0.78375 1.20625 1.5675 1.3125 2.375 C1.77595022 5.33045181 1.77595022 5.33045181 5 7 C5 7.99 5 8.98 5 10 C4.01 10 3.02 10 2 10 C0.66666667 13 0.66666667 13 2 16 C-2.97093824 15.58846263 -7.44508386 15.20399168 -12 13 C-12.33 10.69 -12.66 8.38 -13 6 C-12.34 6.66 -11.68 7.32 -11 8 C-9.01643517 8.71408334 -7.01684563 9.38617742 -5 10 C-5.33 8.68 -5.66 7.36 -6 6 C-5.38125 5.7525 -4.7625 5.505 -4.125 5.25 C-1.64931313 3.79371361 -1.04874998 2.62187494 0 0 Z M1 7 C1.33 7.66 1.66 8.32 2 9 C2.66 8.67 3.32 8.34 4 8 C3.01 7.67 2.02 7.34 1 7 Z M-3 12 C-2.34 12.66 -1.68 13.32 -1 14 C-1 13.34 -1 12.68 -1 12 C-1.66 12 -2.32 12 -3 12 Z " fill="#E09A44" transform="translate(53,80)"/>
<path d="M0 0 C0.66 0.33 1.32 0.66 2 1 C0.44347945 6.3537465 -1.9817509 11.00150947 -4.625 15.875 C-5.04523438 16.65875 -5.46546875 17.4425 -5.8984375 18.25 C-6.9281022 20.16892057 -7.96347567 22.08477603 -9 24 C-9.66 24 -10.32 24 -11 24 C-11.33 22.68 -11.66 21.36 -12 20 C-11.34 20 -10.68 20 -10 20 C-10.226875 19.113125 -10.45375 18.22625 -10.6875 17.3125 C-11.05541631 13.4125871 -10.40240978 12.02525676 -8 9 C-7.34 9 -6.68 9 -6 9 C-5.814375 7.8553125 -5.814375 7.8553125 -5.625 6.6875 C-5 4 -5 4 -3 1 C-2.01 0.67 -1.02 0.34 0 0 Z " fill="#D5D6D7" transform="translate(93,31)"/>
<path d="M0 0 C1.32 0.66 2.64 1.32 4 2 C3.113125 2.763125 2.22625 3.52625 1.3125 4.3125 C-3.21059764 8.80344292 -5.99150289 14.93568081 -7.51953125 21.09375 C-8.05356582 23.21252129 -8.87079219 24.9366454 -9.875 26.875 C-10.40480469 27.91140625 -10.40480469 27.91140625 -10.9453125 28.96875 C-11.29335938 29.6390625 -11.64140625 30.309375 -12 31 C-14.20996708 34.81900549 -14.20996708 34.81900549 -15 39 C-17.475 39.495 -17.475 39.495 -20 40 C-17.49869503 33.94332844 -14.62847916 28.10404867 -11.6875 22.25 C-11.19983154 21.27659668 -10.71216309 20.30319336 -10.2097168 19.30029297 C-6.936034 12.79213967 -3.5937783 6.3383938 0 0 Z " fill="#EFC77C" transform="translate(31,73)"/>
<path d="M0 0 C1.32 0 2.64 0 4 0 C2.375 6.75 2.375 6.75 -1 9 C-3.54229597 9.1712914 -5.97189481 9.23242934 -8.51171875 9.1953125 C-9.23994339 9.1924826 -9.96816803 9.18965271 -10.71846008 9.18673706 C-13.04164137 9.17555257 -15.36443547 9.15045166 -17.6875 9.125 C-19.2636663 9.11496794 -20.83983865 9.10584248 -22.41601562 9.09765625 C-26.27749267 9.07561896 -30.13868071 9.04110141 -34 9 C-34 8.67 -34 8.34 -34 8 C-29.71 8 -25.42 8 -21 8 C-21 7.34 -21 6.68 -21 6 C-14.73 5.67 -8.46 5.34 -2 5 C-1.34 3.35 -0.68 1.7 0 0 Z " fill="#DA9E47" transform="translate(55,105)"/>
<path d="M0 0 C0 3 0 3 -1 5 C-1.99 5 -2.98 5 -4 5 C-4.309375 5.639375 -4.61875 6.27875 -4.9375 6.9375 C-6 9 -6 9 -7 10 C-6.01 10.33 -5.02 10.66 -4 11 C-4 10.34 -4 9.68 -4 9 C-2.68 9.66 -1.36 10.32 0 11 C-2.78687098 12.84070559 -5.58025127 14.67128178 -8.375 16.5 C-9.1690625 17.02464844 -9.963125 17.54929688 -10.78125 18.08984375 C-11.54179688 18.58613281 -12.30234375 19.08242187 -13.0859375 19.59375 C-13.7876709 20.05458984 -14.4894043 20.51542969 -15.21240234 20.99023438 C-17 22 -17 22 -19 22 C-18.15140515 17.46220591 -15.48771835 15.14989571 -12.25 12.0625 C-11.7240625 11.55009766 -11.198125 11.03769531 -10.65625 10.50976562 C-9.61278292 9.49341836 -8.56659694 8.47985434 -7.51757812 7.46923828 C-5.31802347 5.33974666 -3.15891706 3.17056589 -1 1 C-0.67 0.67 -0.34 0.34 0 0 Z " fill="#8A4E20" transform="translate(64,113)"/>
<path d="M0 0 C0.99 0 1.98 0 3 0 C2.42657506 4.2967595 0.89841036 7.18479721 -1.4375 10.8125 C-2.05496094 11.78832031 -2.67242187 12.76414062 -3.30859375 13.76953125 C-4.14583984 14.87361328 -4.14583984 14.87361328 -5 16 C-5.66 16 -6.32 16 -7 16 C-7.33 15.34 -7.66 14.68 -8 14 C-11.5863464 15.93856562 -13.62660802 17.7224587 -16 21 C-16.66 21 -17.32 21 -18 21 C-16.35305751 16.72824292 -13.22947516 14.04129983 -10 10.9375 C-5.67183338 6.75878134 -5.67183338 6.75878134 -2 2 C-1.34 2 -0.68 2 0 2 C0 1.34 0 0.68 0 0 Z " fill="#CA7416" transform="translate(100,3)"/>
<path d="M0 0 C0.98120464 3.05263664 0.98120464 4.94736336 0 8 C0.99 7.34 1.98 6.68 3 6 C3.33 7.98 3.66 9.96 4 12 C5.98 12 7.96 12 10 12 C10.33 13.32 10.66 14.64 11 16 C10.67 15.34 10.34 14.68 10 14 C4.72 14 -0.56 14 -6 14 C-5.67 11.69 -5.34 9.38 -5 7 C-4.01 6.67 -3.02 6.34 -2 6 C-0.77479736 2.99152582 -0.77479736 2.99152582 0 0 Z " fill="#DAC6AE" transform="translate(76,54)"/>
<path d="M0 0 C0.33 0 0.66 0 1 0 C1.66 3.3 2.32 6.6 3 10 C1.35 10 -0.3 10 -2 10 C-2.12375 10.5775 -2.2475 11.155 -2.375 11.75 C-3.00648824 14.02335767 -3.88858191 15.9253529 -5 18 C-5.66 18 -6.32 18 -7 18 C-7.11472656 18.56332031 -7.22945313 19.12664063 -7.34765625 19.70703125 C-8.07854003 22.27606586 -9.13863614 24.35571177 -10.4375 26.6875 C-10.86933594 27.47511719 -11.30117187 28.26273438 -11.74609375 29.07421875 C-13 31 -13 31 -15 32 C-13.50401997 27.01339989 -11.37939222 22.60190143 -9 18 C-8.35208585 16.70937584 -7.70624748 15.41770749 -7.0625 14.125 C-4.70833333 9.41666667 -2.35416667 4.70833333 0 0 Z " fill="#DFC4A4" transform="translate(92,22)"/>
<path d="M0 0 C0.33 0.99 0.66 1.98 1 3 C1.99 3.33 2.98 3.66 4 4 C4.33 4.99 4.66 5.98 5 7 C6.32 6.67 7.64 6.34 9 6 C8.67 7.32 8.34 8.64 8 10 C8.66 10 9.32 10 10 10 C10 9.34 10 8.68 10 8 C14.455 8.99 14.455 8.99 19 10 C18 14 18 14 16 16 C14.948125 15.525625 13.89625 15.05125 12.8125 14.5625 C10.46604819 13.52646583 8.90103434 12.99079389 6.3125 12.75 C3.13878107 11.72068575 2.19453773 9.73760362 0.71484375 6.85546875 C-0.19770006 4.48684411 -0.30418639 2.50953773 0 0 Z " fill="#EEB654" transform="translate(36,64)"/>
<path d="M0 0 C0 3 0 3 -2 6 C-1.59404786 10.65815681 -1.59404786 10.65815681 0 15 C-0.33 15.66 -0.66 16.32 -1 17 C-0.505 17.45375 -0.01 17.9075 0.5 18.375 C2 20 2 20 2 22 C1.34 22 0.68 22 0 22 C0.22816406 22.53109375 0.45632812 23.0621875 0.69140625 23.609375 C0.97886719 24.31578125 1.26632813 25.0221875 1.5625 25.75 C1.85253906 26.44609375 2.14257812 27.1421875 2.44140625 27.859375 C3.07831803 30.30012784 2.80248831 31.6403655 2 34 C1.01161567 31.9627797 0.03467748 29.92000393 -0.9375 27.875 C-1.48277344 26.73804687 -2.02804688 25.60109375 -2.58984375 24.4296875 C-4.80117493 19.05143603 -5.50811771 13.79254192 -5 8 C-3.73418571 5.10588823 -2.2549445 2.2549445 0 0 Z " fill="#F0BE75" transform="translate(33,33)"/>
<path d="M0 0 C0.99 0.33 1.98 0.66 3 1 C2.154375 1.66 1.30875 2.32 0.4375 3 C-2.85692037 5.7349905 -5.56488184 8.82878749 -8.3359375 12.08203125 C-10.44076193 14.50801434 -12.72963655 16.72963655 -15 19 C-16.35555293 20.64864545 -17.69631653 22.31003995 -19 24 C-15.7 24.33 -12.4 24.66 -9 25 C-9 25.33 -9 25.66 -9 26 C-13.62 26 -18.24 26 -23 26 C-21.3372303 22.67446059 -20.19828503 20.91775851 -17.734375 18.3203125 C-17.09113281 17.63839844 -16.44789062 16.95648438 -15.78515625 16.25390625 C-15.11355469 15.55136719 -14.44195312 14.84882812 -13.75 14.125 C-13.09386719 13.43019531 -12.43773438 12.73539063 -11.76171875 12.01953125 C-7.90432532 7.94741214 -3.98465077 3.9475267 0 0 Z " fill="#E59439" transform="translate(103,86)"/>
<path d="M0 0 C0.33 0.66 0.66 1.32 1 2 C3.02463255 2.65213292 3.02463255 2.65213292 5 3 C4.01 3.495 4.01 3.495 3 4 C2.67 4.99 2.34 5.98 2 7 C1.34 7 0.68 7 0 7 C-0.66 6.01 -1.32 5.02 -2 4 C-2.66 5.32 -3.32 6.64 -4 8 C-6.97 8 -9.94 8 -13 8 C-12.67 6.68 -12.34 5.36 -12 4 C-8.09420622 1.97199169 -4.34885027 0.65891671 0 0 Z " fill="#F3B24F" transform="translate(46,28)"/>
<path d="M0 0 C0.625 1.85546875 0.625 1.85546875 1 4 C-0.60942374 5.86089619 -2.17877816 7.37072066 -4 9 C-5.17026884 10.20484497 -6.3367979 11.41333114 -7.5 12.625 C-11.26570171 16.39070171 -15.27160458 18.64077955 -20 21 C-15.76183463 15.93376232 -11.32591037 11.19961931 -6.625 6.5625 C-5.98433594 5.92634766 -5.34367187 5.29019531 -4.68359375 4.63476562 C-3.12469121 3.08749668 -1.56348584 1.54263508 0 0 Z " fill="#874513" transform="translate(115,60)"/>
<path d="M0 0 C0 0.99 0 1.98 0 3 C-0.99 3 -1.98 3 -3 3 C-2.814375 3.598125 -2.62875 4.19625 -2.4375 4.8125 C-2 7 -2 7 -3 10 C-4.65 10.33 -6.3 10.66 -8 11 C-9.25 4.375 -9.25 4.375 -7 1 C-4 0 -4 0 0 0 Z " fill="#F7BC5F" transform="translate(39,35)"/>
<path d="M0 0 C0 3.68608512 -1.12472901 5.5478335 -2.8125 8.8125 C-3.59560547 10.33810547 -3.59560547 10.33810547 -4.39453125 11.89453125 C-5.18923828 13.43173828 -5.18923828 13.43173828 -6 15 C-7.00294876 16.9985229 -8.00332363 18.99834163 -9 21 C-10 23 -11 25 -12 27 C-12.66 27 -13.32 27 -14 27 C-13.42975551 23.35427961 -12.4583148 20.71844096 -10.5625 17.5625 C-8.57069601 14.12001796 -7.08558412 10.84888916 -6 7 C-5.34 7 -4.68 7 -4 7 C-4 6.01 -4 5.02 -4 4 C-3.34 4 -2.68 4 -2 4 C-2.33 3.01 -2.66 2.02 -3 1 C-2.01 0.67 -1.02 0.34 0 0 Z " fill="#DE8F31" transform="translate(93,19)"/>
<path d="M0 0 C0.33 1.32 0.66 2.64 1 4 C4.3 4 7.6 4 11 4 C10.34 5.65 9.68 7.3 9 9 C8.34 9 7.68 9 7 9 C7 9.66 7 10.32 7 11 C9.31 11.33 11.62 11.66 14 12 C13.67 12.99 13.34 13.98 13 15 C13 14.34 13 13.68 13 13 C10.03 13 7.06 13 4 13 C3.67 12.34 3.34 11.68 3 11 C3.33 10.34 3.66 9.68 4 9 C4.66 9 5.32 9 6 9 C6 8.34 6 7.68 6 7 C3.69 6.67 1.38 6.34 -1 6 C-1.33 5.01 -1.66 4.02 -2 3 C-1.34 2.01 -0.68 1.02 0 0 Z " fill="#D28622" transform="translate(115,46)"/>
<path d="M0 0 C5.94 0 11.88 0 18 0 C15.98127747 4.03744506 13.91899872 6.62010675 11 10 C10.4465236 7.92446352 10 6.15634036 10 4 C10.99 3.67 11.98 3.34 13 3 C6.07 2.505 6.07 2.505 -1 2 C-0.67 1.34 -0.34 0.68 0 0 Z " fill="#BDBCBD" transform="translate(82,62)"/>
<path d="M0 0 C5.28 0 10.56 0 16 0 C14.33627751 4.15930623 13.08914549 6.44494912 10.375 9.8125 C9.74335937 10.60269531 9.11171875 11.39289063 8.4609375 12.20703125 C7.97882813 12.79871094 7.49671875 13.39039062 7 14 C6.37890625 12.1640625 6.37890625 12.1640625 6 10 C7.9375 7.375 7.9375 7.375 10 5 C10 4.34 10 3.68 10 3 C6.7 2.34 3.4 1.68 0 1 C0 0.67 0 0.34 0 0 Z " fill="#DF9033" transform="translate(70,68)"/>
<path d="M0 0 C12.54 0 25.08 0 38 0 C38 0.33 38 0.66 38 1 C36.06447266 1.09087891 36.06447266 1.09087891 34.08984375 1.18359375 C32.37238745 1.26805881 30.65493998 1.35270377 28.9375 1.4375 C28.08994141 1.47681641 27.24238281 1.51613281 26.36914062 1.55664062 C22.61466543 1.74508919 18.99903118 2.00015468 15.28125 2.59375 C11.76962143 3.02852306 9.02712476 2.72428226 5.5625 2.0625 C4.51191406 1.86785156 3.46132812 1.67320313 2.37890625 1.47265625 C1.20134766 1.23869141 1.20134766 1.23869141 0 1 C0 0.67 0 0.34 0 0 Z " fill="#DB7907" transform="translate(129,29)"/>
<path d="M0 0 C1.32 0.33 2.64 0.66 4 1 C3.39220107 11.79367067 3.39220107 11.79367067 0 16 C-0.66 16.33 -1.32 16.66 -2 17 C-2.33 17.66 -2.66 18.32 -3 19 C-2.64641029 13.40352839 -1.95304232 9.83225106 1 5 C0.78670551 2.25760857 0.78670551 2.25760857 0 0 Z " fill="#E1AA5A" transform="translate(45,39)"/>
<path d="M0 0 C1.32 0 2.64 0 4 0 C3.67 1.65 3.34 3.3 3 5 C2.01 5.33 1.02 5.66 0 6 C0 6.66 0 7.32 0 8 C-1.32 7.67 -2.64 7.34 -4 7 C-4 7.66 -4 8.32 -4 9 C-5.32 8.67 -6.64 8.34 -8 8 C-6.1875 5.5 -6.1875 5.5 -4 3 C-3.01 3 -2.02 3 -1 3 C-0.67 2.01 -0.34 1.02 0 0 Z " fill="#994105" transform="translate(64,115)"/>
<path d="M0 0 C0.33 0 0.66 0 1 0 C1.46400792 5.80009895 0.382003 8.34974588 -3 13 C-3 13.99 -3 14.98 -3 16 C-4.65 16.33 -6.3 16.66 -8 17 C-5.60078508 11.19137441 -2.8505108 5.59962003 0 0 Z " fill="#F0D28F" transform="translate(19,96)"/>
<path d="M0 0 C0.99 0 1.98 0 3 0 C2.45144652 4.571279 1.58255197 8.67435795 0 13 C-0.33 13 -0.66 13 -1 13 C-1.33 11.35 -1.66 9.7 -2 8 C-3.98 8.99 -3.98 8.99 -6 10 C-4.34406255 6.41213553 -2.37162309 3.16216412 0 0 Z " fill="#854815" transform="translate(136,3)"/>
<path d="M0 0 C0.66 0.33 1.32 0.66 2 1 C0.68938409 5.23429756 -0.94356259 9.07407404 -3 13 C-4.41377341 10.36095629 -5.37240135 7.92879371 -6 5 C-5.34 4.67 -4.68 4.34 -4 4 C-3.67 3.01 -3.34 2.02 -3 1 C-2.01 0.67 -1.02 0.34 0 0 Z " fill="#CFCECE" transform="translate(93,31)"/>
<path d="M0 0 C4.55421609 5.66340912 7.77693274 12.61913897 7 20 C6.34 19.67 5.68 19.34 5 19 C5 16.69 5 14.38 5 12 C4.34 12 3.68 12 3 12 C2.30062798 10.5682384 1.61587282 9.12932968 0.9375 7.6875 C0.55464844 6.88699219 0.17179688 6.08648437 -0.22265625 5.26171875 C-1 3 -1 3 0 0 Z " fill="#C67D23" transform="translate(152,75)"/>
<path d="M0 0 C0.99 0 1.98 0 3 0 C2.54300722 5.02692063 0.00758252 8.14896261 -3 12 C-3 9 -3 9 -2 7 C-3.32 7.33 -4.64 7.66 -6 8 C-4.7260411 5.96166576 -3.38938077 3.96147874 -2 2 C-1.34 2 -0.68 2 0 2 C0 1.34 0 0.68 0 0 Z " fill="#BB7F22" transform="translate(100,3)"/>
<path d="M0 0 C0.66 0.33 1.32 0.66 2 1 C1.67 1.66 1.34 2.32 1 3 C0.83330682 6.54171978 0.83330682 6.54171978 1 10 C1.33 10.33 1.66 10.66 2 11 C2.99 9.68 3.98 8.36 5 7 C4.51171875 13.0546875 4.51171875 13.0546875 4 15 C3.01 15.66 2.02 16.32 1 17 C-0.515625 15.87890625 -0.515625 15.87890625 -2 14 C-2.109375 11.15234375 -2.109375 11.15234375 -1.75 7.9375 C-1.64171875 6.87402344 -1.5334375 5.81054688 -1.421875 4.71484375 C-1 2 -1 2 0 0 Z " fill="#E8B96B" transform="translate(38,44)"/>
<path d="M0 0 C1.32 0 2.64 0 4 0 C3.54663921 4.87362847 2.2910841 7.39042389 -1 11 C-1.66 10.67 -2.32 10.34 -3 10 C-3 8.68 -3 7.36 -3 6 C-2.34 6 -1.68 6 -1 6 C-0.67 4.02 -0.34 2.04 0 0 Z " fill="#D18018" transform="translate(155,98)"/>
<path d="M0 0 C0.66 0.66 1.32 1.32 2 2 C3.175625 2.45375 4.35125 2.9075 5.5625 3.375 C9 5 9 5 9.9375 7.1875 C9.958125 7.785625 9.97875 8.38375 10 9 C6.97580475 8.41196203 3.98241547 7.77321882 1 7 C0.67 4.69 0.34 2.38 0 0 Z " fill="#E2A856" transform="translate(40,86)"/>
<path d="M0 0 C0.99 0 1.98 0 3 0 C4.16297973 2.32595946 4.16600691 3.78723231 4.1875 6.375 C4.20167969 7.14585938 4.21585938 7.91671875 4.23046875 8.7109375 C3.97301392 11.26803125 3.37202401 12.83587965 2 15 C-0.70605494 16.49545142 -2.2388577 17.12342848 -5.3125 16.625 C-6.1478125 16.315625 -6.1478125 16.315625 -7 16 C-5.865625 15.54625 -4.73125 15.0925 -3.5625 14.625 C0.04721692 13.42904194 0.04721692 13.42904194 1 11 C1.1421988 7.16063232 1.17754676 3.67983361 0 0 Z " fill="#CE8028" transform="translate(148,84)"/>
<path d="M0 0 C0.33 0 0.66 0 1 0 C1.66 3.3 2.32 6.6 3 10 C1.35 10 -0.3 10 -2 10 C-2.33 11.32 -2.66 12.64 -3 14 C-4.07010304 11.23556715 -4.16283213 9.46148633 -3.17578125 6.6640625 C-2.16488321 4.41525773 -1.11596524 2.19840363 0 0 Z " fill="#DAC9B9" transform="translate(92,22)"/>
<path d="M0 0 C0 3.74135852 -0.73439242 6.6768648 -3.375 9.4375 C-3.91125 9.953125 -4.4475 10.46875 -5 11 C-6.36011609 12.98188345 -7.69791204 14.97951869 -9 17 C-9.99 16.67 -10.98 16.34 -12 16 C-10.625 13.5 -10.625 13.5 -9 11 C-8.34 11 -7.68 11 -7 11 C-6.773125 10.29875 -6.54625 9.5975 -6.3125 8.875 C-4.68343133 5.30656387 -2.59359269 2.93485489 0 0 Z " fill="#DEC2A3" transform="translate(83,73)"/>
<path d="M0 0 C1.98 0.495 1.98 0.495 4 1 C4.0825 1.61875 4.165 2.2375 4.25 2.875 C4.81258459 5.18437567 4.81258459 5.18437567 7.0625 6.25 C7.701875 6.4975 8.34125 6.745 9 7 C7 9 7 9 5.0546875 9.1953125 C3.03645833 9.13020833 1.01822917 9.06510417 -1 9 C-1 8.34 -1 7.68 -1 7 C0.32 7 1.64 7 3 7 C3 6.34 3 5.68 3 5 C2.01 4.67 1.02 4.34 0 4 C0 2.68 0 1.36 0 0 Z " fill="#EA9426" transform="translate(65,63)"/>
<path d="M0 0 C0.68707555 2.49064888 1 4.37886292 1 7 C0.195625 7.12375 -0.60875 7.2475 -1.4375 7.375 C-2.7059375 7.684375 -2.7059375 7.684375 -4 8 C-4.33 8.66 -4.66 9.32 -5 10 C-5.66 10 -6.32 10 -7 10 C-7.268125 10.61875 -7.53625 11.2375 -7.8125 11.875 C-9 14 -9 14 -12 16 C-10.32770299 12.04030824 -7.63695006 8.9838799 -4.875 5.75 C-4.40707031 5.19570313 -3.93914062 4.64140625 -3.45703125 4.0703125 C-2.30824672 2.71052674 -1.15460347 1.35484835 0 0 Z " fill="#82400E" transform="translate(129,13)"/>
<path d="M0 0 C-0.33 1.65 -0.66 3.3 -1 5 C-2.0828125 5.061875 -2.0828125 5.061875 -3.1875 5.125 C-7.23274817 6.38352165 -8.49481257 8.63589117 -11 12 C-11.66 11.67 -12.32 11.34 -13 11 C-9.375 4.125 -9.375 4.125 -6 3 C-5.34 2.34 -4.68 1.68 -4 1 C-2 0 -2 0 0 0 Z " fill="#B4A187" transform="translate(106,10)"/>
<path d="M0 0 C0.66 0.99 1.32 1.98 2 3 C1.48050781 3.58007812 0.96101563 4.16015625 0.42578125 4.7578125 C-3.46119251 9.1117979 -7.29770995 13.487834 -11 18 C-11 14.6181337 -10.55473195 14.03299589 -8.59375 11.42578125 C-8.09746094 10.75869141 -7.60117187 10.09160156 -7.08984375 9.40429688 C-6.56519531 8.71400391 -6.04054688 8.02371094 -5.5 7.3125 C-4.97535156 6.61060547 -4.45070313 5.90871094 -3.91015625 5.18554688 C-2.61313301 3.45225218 -1.3073845 1.72549285 0 0 Z " fill="#F3CD96" transform="translate(69,92)"/>
<path d="M0 0 C4.455 0.99 4.455 0.99 9 2 C8 6 8 6 6 8 C4.02 7.01 2.04 6.02 0 5 C0 3.35 0 1.7 0 0 Z " fill="#EDA946" transform="translate(46,72)"/>
<path d="M0 0 C0.33 0.66 0.66 1.32 1 2 C0.34 3.32 -0.32 4.64 -1 6 C2.3 6.66 5.6 7.32 9 8 C9 8.33 9 8.66 9 9 C4.38 9 -0.24 9 -5 9 C-3.9957244 3.97862202 -3.60239038 3.13756581 0 0 Z " fill="#8E4C1C" transform="translate(105,43)"/>
<path d="M0 0 C2.31 0 4.62 0 7 0 C7.36629408 4.27343092 6.40814077 6.48812804 4 10 C3.01 9.67 2.02 9.34 1 9 C1.61277612 6.03824877 2.25372522 4.61941217 4 2 C2.68 1.67 1.36 1.34 0 1 C0 0.67 0 0.34 0 0 Z " fill="#D57E12" transform="translate(168,29)"/>
<path d="M0 0 C0.99 0 1.98 0 3 0 C4.421875 1.6796875 4.421875 1.6796875 5.75 3.875 C6.19859375 4.59429687 6.6471875 5.31359375 7.109375 6.0546875 C7.40328125 6.69664063 7.6971875 7.33859375 8 8 C7.67 8.66 7.34 9.32 7 10 C4.625 9.3125 4.625 9.3125 2 8 C0.43061972 5.08543662 0 3.32058331 0 0 Z " fill="#D67D16" transform="translate(144,65)"/>
<path d="M0 0 C2.63936896 0.36424412 3.71458111 0.63210879 5.37890625 2.77734375 C5.76949219 3.49019531 6.16007813 4.20304687 6.5625 4.9375 C8.25438487 7.99398709 8.97510454 8.98340303 12 11 C10.68 11.33 9.36 11.66 8 12 C7.52949219 11.3503125 7.05898437 10.700625 6.57421875 10.03125 C5.95160156 9.1959375 5.32898438 8.360625 4.6875 7.5 C4.07261719 6.6646875 3.45773438 5.829375 2.82421875 4.96875 C2.22222656 4.3190625 1.62023437 3.669375 1 3 C0.01 3 -0.98 3 -2 3 C-1.34 2.01 -0.68 1.02 0 0 Z " fill="#C97820" transform="translate(144,60)"/>
<path d="M0 0 C0.66 0.33 1.32 0.66 2 1 C1.23775772 2.77454823 0.46485997 4.544522 -0.3125 6.3125 C-0.74175781 7.29863281 -1.17101562 8.28476562 -1.61328125 9.30078125 C-2.88524394 11.77662976 -4.02624228 13.11595854 -6 15 C-6.72197162 17.60611077 -6.72197162 17.60611077 -7 20 C-7.33 20 -7.66 20 -8 20 C-7.505 15.545 -7.505 15.545 -7 11 C-6.01 11 -5.02 11 -4 11 C-4 9.68 -4 8.36 -4 7 C-3.34 7 -2.68 7 -2 7 C-2 5.02 -2 3.04 -2 1 C-1.34 0.67 -0.68 0.34 0 0 Z " fill="#E2973D" transform="translate(77,48)"/>
<path d="M0 0 C0 0.66 0 1.32 0 2 C-1.95927063 3.7143618 -3.95880212 5.38405168 -6 7 C-2.67395049 8.10868317 0.53058454 8.54177532 4 9 C4 9.33 4 9.66 4 10 C-0.62 10 -5.24 10 -10 10 C-8.38207319 6.76414639 -7.44195891 5.16753932 -5 2.75 C-4.484375 2.22921875 -3.96875 1.7084375 -3.4375 1.171875 C-2 0 -2 0 0 0 Z " fill="#EEA74B" transform="translate(90,102)"/>
<path d="M0 0 C0.33 0.99 0.66 1.98 1 3 C0.67 3.66 0.34 4.32 0 5 C-0.66 5 -1.32 5 -2 5 C-2.33 6.32 -2.66 7.64 -3 9 C-3.33 8.01 -3.66 7.02 -4 6 C-5.32 6.33 -6.64 6.66 -8 7 C-7.67 5.68 -7.34 4.36 -7 3 C-6.34 3 -5.68 3 -5 3 C-5 2.34 -5 1.68 -5 1 C-3.35 1.33 -1.7 1.66 0 2 C0 1.34 0 0.68 0 0 Z " fill="#E87C06" transform="translate(168,39)"/>
<path d="M0 0 C0.66 0.33 1.32 0.66 2 1 C-0.40673887 5.69314079 -0.40673887 5.69314079 -2.8125 6.9375 C-5.83317909 7.02380512 -8.20491901 6.07991765 -11 5 C-11 4.34 -11 3.68 -11 3 C-10.37351562 2.95101563 -9.74703125 2.90203125 -9.1015625 2.8515625 C-8.28429687 2.77679687 -7.46703125 2.70203125 -6.625 2.625 C-5.81289062 2.55539063 -5.00078125 2.48578125 -4.1640625 2.4140625 C-1.79665809 2.17107412 -1.79665809 2.17107412 0 0 Z " fill="#CD7F1B" transform="translate(78,25)"/>
<path d="M0 0 C1.32 0.66 2.64 1.32 4 2 C0.34666857 4.63379708 -2.48521602 6.46884894 -7 7 C-6.125 3.125 -6.125 3.125 -5 2 C-3.33382885 1.95936168 -1.66611905 1.957279 0 2 C0 1.34 0 0.68 0 0 Z " fill="#894312" transform="translate(60,122)"/>
<path d="M0 0 C0.99 0.33 1.98 0.66 3 1 C1.02 4.96 -0.96 8.92 -3 13 C-3.33 13 -3.66 13 -4 13 C-4.1875 10.1875 -4.1875 10.1875 -4 7 C-2.5625 5.375 -2.5625 5.375 -1 4 C-0.28552357 1.89667109 -0.28552357 1.89667109 0 0 Z " fill="#CB862D" transform="translate(144,87)"/>
<path d="M0 0 C0.66 1.32 1.32 2.64 2 4 C0.68 5.65 -0.64 7.3 -2 9 C-2.66 8.34 -3.32 7.68 -4 7 C-3.8125 4.9375 -3.8125 4.9375 -3 3 C-2.01 2.67 -1.02 2.34 0 2 C0 1.34 0 0.68 0 0 Z " fill="#E2AA54" transform="translate(51,82)"/>
<path d="M0 0 C0.33 0.66 0.66 1.32 1 2 C-0.54153066 6.47043892 -4.03388274 9.95660925 -8.1640625 12.1484375 C-9.07285156 12.56996094 -9.07285156 12.56996094 -10 13 C-6.73279209 8.61105071 -3.45101522 4.24740335 0 0 Z " fill="#8A4B1B" transform="translate(116,29)"/>
<path d="M0 0 C0.33 0.66 0.66 1.32 1 2 C3.02463255 2.65213292 3.02463255 2.65213292 5 3 C4.01 3.495 4.01 3.495 3 4 C2.67 4.99 2.34 5.98 2 7 C1.34 7 0.68 7 0 7 C-0.33 6.01 -0.66 5.02 -1 4 C-1.99 4 -2.98 4 -4 4 C-4 3.01 -4 2.02 -4 1 C-2.68 0.67 -1.36 0.34 0 0 Z " fill="#E8A846" transform="translate(46,28)"/>
<path d="M0 0 C0 3 0 3 -2.3125 5.4375 C-3.199375 6.283125 -4.08625 7.12875 -5 8 C-5.556875 8.763125 -6.11375 9.52625 -6.6875 10.3125 C-7.3371875 11.1478125 -7.3371875 11.1478125 -8 12 C-8.66 12 -9.32 12 -10 12 C-8.52278578 8.54798361 -6.56205999 6.35038064 -3.875 3.75 C-3.15054688 3.04359375 -2.42609375 2.3371875 -1.6796875 1.609375 C-1.12539062 1.07828125 -0.57109375 0.5471875 0 0 Z " fill="#793C12" transform="translate(79,97)"/>
<path d="M0 0 C0 3.41321235 -0.66867466 4.39472885 -2.5 7.1875 C-2.9640625 7.90292969 -3.428125 8.61835938 -3.90625 9.35546875 C-4.2671875 9.89816406 -4.628125 10.44085938 -5 11 C-5.33 9.68 -5.66 8.36 -6 7 C-5.34 7 -4.68 7 -4 7 C-4 6.01 -4 5.02 -4 4 C-3.34 4 -2.68 4 -2 4 C-2.33 3.01 -2.66 2.02 -3 1 C-2.01 0.67 -1.02 0.34 0 0 Z " fill="#DC821F" transform="translate(93,19)"/>
<path d="M0 0 C0.66 0 1.32 0 2 0 C1.49287967 3.71888239 0.88391785 6.73454239 -1 10 C-1.66 10 -2.32 10 -3 10 C-3.33 10.66 -3.66 11.32 -4 12 C-3.74438677 9.6568787 -3.40729228 7.32156597 -3 5 C-2.34 4.67 -1.68 4.34 -1 4 C-0.34786708 1.97536745 -0.34786708 1.97536745 0 0 Z " fill="#F2AB49" transform="translate(46,46)"/>
<path d="M0 0 C0.66 0 1.32 0 2 0 C0.52307692 6.64615385 0.52307692 6.64615385 -2.125 8.4375 C-2.74375 8.623125 -3.3625 8.80875 -4 9 C-2.80100302 5.9168649 -1.52299523 2.93720508 0 0 Z " fill="#F8C368" transform="translate(29,80)"/>
<path d="M0 0 C0.33 1.32 0.66 2.64 1 4 C2.65 4 4.3 4 6 4 C6 4.66 6 5.32 6 6 C3.69 6 1.38 6 -1 6 C-1.33 5.01 -1.66 4.02 -2 3 C-1.34 2.01 -0.68 1.02 0 0 Z " fill="#D0802B" transform="translate(115,46)"/>
<path d="M0 0 C0.33 0.66 0.66 1.32 1 2 C-1.41776316 7.10416667 -1.41776316 7.10416667 -3 9 C-5.14453125 9.71484375 -5.14453125 9.71484375 -7 10 C-6.02223933 8.51990357 -5.0427506 7.04094856 -4.0625 5.5625 C-3.51722656 4.73878906 -2.97195312 3.91507813 -2.41015625 3.06640625 C-1 1 -1 1 0 0 Z " fill="#DF8927" transform="translate(123,36)"/>
<path d="M0 0 C-0.33 0.99 -0.66 1.98 -1 3 C-3.97 3 -6.94 3 -10 3 C-8.0130571 -0.97388579 -3.91761109 -0.08705802 0 0 Z " fill="#DEBB75" transform="translate(22,111)"/>
<path d="M0 0 C0.33 0.99 0.66 1.98 1 3 C1.99 3.33 2.98 3.66 4 4 C4.33 5.65 4.66 7.3 5 9 C4.01 9.495 4.01 9.495 3 10 C0.59185923 6.48812804 -0.36629408 4.27343092 0 0 Z " fill="#E5B560" transform="translate(36,64)"/>
<path d="M0 0 C-0.125 1.875 -0.125 1.875 -1 4 C-4.0625 5.25 -4.0625 5.25 -7 6 C-6.75 4.125 -6.75 4.125 -6 2 C-3.85331506 0.61504198 -2.56128588 0 0 0 Z " fill="#E7B055" transform="translate(40,30)"/>
<path d="M0 0 C2.12472576 -0.05386629 4.24983652 -0.09273071 6.375 -0.125 C7.55835938 -0.14820312 8.74171875 -0.17140625 9.9609375 -0.1953125 C13 0 13 0 15 2 C11.42619658 3.19126781 9.49116698 2.7349445 5.8125 2.0625 C4.72582031 1.86785156 3.63914063 1.67320313 2.51953125 1.47265625 C1.27236328 1.23869141 1.27236328 1.23869141 0 1 C0 0.67 0 0.34 0 0 Z " fill="#DA7E15" transform="translate(129,29)"/>
<path d="M0 0 C0.66 0 1.32 0 2 0 C2 1.65 2 3.3 2 5 C0.02 5.99 0.02 5.99 -2 7 C-2 5.35 -2 3.7 -2 2 C-1.34 2 -0.68 2 0 2 C0 1.34 0 0.68 0 0 Z " fill="#E07D18" transform="translate(154,102)"/>
<path d="M0 0 C1.65 0 3.3 0 5 0 C4.25 4.75 4.25 4.75 2 7 C0.5393715 4.35261084 0 3.10551666 0 0 Z " fill="#CBCFD2" transform="translate(93,25)"/>
<path d="M0 0 C0.33 0.66 0.66 1.32 1 2 C1.66 2.33 2.32 2.66 3 3 C1.35 4.65 -0.3 6.3 -2 8 C-2 4.23312136 -1.76462683 3.08809695 0 0 Z " fill="#DF6A10" transform="translate(81,22)"/>
<path d="M0 0 C0.66 0 1.32 0 2 0 C2.33 1.32 2.66 2.64 3 4 C2.01 4 1.02 4 0 4 C-0.33 4.99 -0.66 5.98 -1 7 C-1.625 5.1875 -1.625 5.1875 -2 3 C-1.34 2.01 -0.68 1.02 0 0 Z " fill="#E07D0C" transform="translate(148,80)"/>
<path d="M0 0 C-0.33 1.65 -0.66 3.3 -1 5 C-1.99 4.67 -2.98 4.34 -4 4 C-4.99 4 -5.98 4 -7 4 C-2.25 0 -2.25 0 0 0 Z " fill="#BFBDB8" transform="translate(104,14)"/>
<path d="M0 0 C2.31 0 4.62 0 7 0 C7 0.99 7 1.98 7 3 C6.01 3.33 5.02 3.66 4 4 C4 3.34 4 2.68 4 2 C2.68 1.67 1.36 1.34 0 1 C0 0.67 0 0.34 0 0 Z " fill="#DB7506" transform="translate(168,29)"/>
</svg>
